<svg width="168" height="30" viewBox="0 0 168 30" fill="none" xmlns="http://www.w3.org/2000/svg">
<path d="M36.54 4.535H41.02C39.375 6.88 38.08 9.505 37.275 12.235L32.305 29.035H26.6L20.51 8.525L14.42 29.035H8.715L3.78 12.375C2.94 9.575 1.68 6.915 0.035 4.535H8.575C8.435 5.27 8.4 6.04 8.4 6.775C8.4 8.035 8.575 9.295 8.925 10.52L13.65 26.235L20.09 4.535H25.025L31.5 26.34L36.12 10.73C36.715 8.735 36.89 6.6 36.54 4.535ZM56.554 28.86C56.939 28.37 57.919 26.725 57.884 23.61V18.64C57.884 13.46 57.324 9.925 53.964 9.925C49.694 9.925 48.364 13.46 48.364 18.64V23.61C48.364 25.71 48.819 27.145 49.204 27.985L49.239 28.09C49.484 28.545 49.659 28.825 49.799 28.965L49.834 29.035H41.469L41.574 28.86C41.959 28.37 42.939 26.725 42.939 23.61V6.775C42.939 2.925 41.469 1.35 41.469 1.35H43.954C46.404 1.35 48.364 3.31 48.364 5.76V11.5C49.589 9.75 51.059 8.385 53.964 8.385C61.069 8.385 63.344 13.11 63.344 18.92V23.61C63.344 25.71 63.799 27.145 64.184 27.985L64.219 28.09C64.464 28.545 64.639 28.825 64.779 28.965L64.814 29.035H56.449L56.554 28.86ZM70.3661 6.355C68.7561 6.355 67.4261 5.025 67.4261 3.415C67.4261 1.77 68.7561 0.474998 70.3661 0.474998C72.0111 0.474998 73.3061 1.77 73.3061 3.415C73.3061 5.025 72.0111 6.355 70.3661 6.355ZM66.3061 28.86C66.6911 28.37 67.6711 26.725 67.6711 23.61V14.265C67.6711 10.415 66.2011 8.84 66.2011 8.84H68.6511C71.1011 8.84 73.0961 10.8 73.0961 13.25V23.61C73.0961 25.71 73.5161 27.145 73.9361 27.985L73.9711 28.09C74.1811 28.545 74.3911 28.825 74.4961 28.965L74.5661 29.035H66.2011L66.3061 28.86ZM76.131 28.86C76.516 28.37 77.496 26.725 77.496 23.61V6.775C77.496 2.925 76.026 1.35 76.026 1.35H78.476C80.926 1.35 82.921 3.31 82.921 5.76V23.61C82.921 25.71 83.341 27.145 83.761 27.985L83.796 28.09C84.006 28.545 84.216 28.825 84.321 28.965L84.391 29.035H76.026L76.131 28.86ZM108.113 14.265V24.135C108.113 27.285 109.583 29.035 109.583 29.035H105.803C104.333 29.035 102.653 27.845 102.653 26.375C101.393 28.125 99.9925 29.455 97.0525 29.455C89.9475 29.455 86.0275 24.765 86.0275 18.92C86.0275 13.11 89.9475 8.385 97.0525 8.385C98.2075 8.385 99.7125 8.595 100.588 8.945C103.458 10.17 106.713 10.135 109.583 8.84C109.583 8.84 108.113 10.66 108.113 14.265ZM97.0525 27.915C101.323 27.915 102.653 22.315 102.653 18.92C102.653 13.74 101.323 9.925 97.0525 9.925C93.6925 9.925 91.4525 13.74 91.4525 18.92C91.4525 24.135 93.6925 27.915 97.0525 27.915ZM123.741 8.385C130.811 8.385 133.786 13.11 133.786 18.92C133.786 24.765 130.811 29.455 123.741 29.455C120.556 29.455 118.071 28.02 116.846 26.2C116.216 27.845 113.591 29.035 111.701 29.035V6.775C111.701 2.925 110.231 1.35 110.231 1.35H112.716C115.166 1.35 117.126 3.31 117.126 5.76V10.975C118.386 9.47 120.801 8.385 123.741 8.385ZM122.726 27.915C126.086 27.915 128.326 24.135 128.326 18.92C128.326 13.74 126.086 9.925 122.726 9.925C118.456 9.925 117.126 13.74 117.126 18.92C117.126 22.315 118.491 27.915 122.726 27.915ZM148.782 27.565C154.067 27.565 157.707 22.56 157.707 22.56C156.272 26.34 152.072 29.455 146.892 29.455C139.997 29.455 135.657 24.695 135.657 18.85C135.657 13.04 139.997 8.385 146.892 8.385C152.387 8.385 156.692 11.29 157.917 16.05C158.442 18.08 156.937 19.97 154.837 19.97H141.362C142.167 23.75 144.477 27.565 148.782 27.565ZM145.037 10.135C141.432 11.15 140.837 15.035 141.082 18.43H151.442C152.177 18.43 152.737 17.66 152.597 16.925C152.002 12.935 149.167 9.015 145.037 10.135ZM159.703 28.86C160.088 28.37 161.068 26.725 161.068 23.61V6.775C161.068 2.925 159.598 1.35 159.598 1.35H162.048C164.498 1.35 166.493 3.31 166.493 5.76V23.61C166.493 25.71 166.913 27.145 167.333 27.985L167.368 28.09C167.578 28.545 167.788 28.825 167.893 28.965L167.963 29.035H159.598L159.703 28.86Z" fill="#AD643A"/>
</svg>
