<svg width="24" height="24" viewBox="0 0 24 24" fill="none" xmlns="http://www.w3.org/2000/svg">
<path d="M19.1814 9.14118C17.982 9.88235 17.2412 11.1529 17.2412 12.5647C17.2412 14.1529 18.1936 15.6 19.64 16.2C19.3578 17.1176 18.9345 17.9647 18.4053 18.7412C17.6292 19.8353 16.8178 20.9647 15.6184 20.9647C14.419 20.9647 14.0662 20.2588 12.6551 20.2588C11.2793 20.2588 10.7854 21 9.65658 21C8.52771 21 7.75161 19.9765 6.86969 18.7059C5.70554 16.9412 5.03528 14.8941 5 12.7412C5 9.24706 7.25774 7.37647 9.51547 7.37647C10.7149 7.37647 11.7027 8.15294 12.4435 8.15294C13.149 8.15294 14.2779 7.34118 15.6184 7.34118C17.0295 7.30588 18.37 7.97647 19.1814 9.14118ZM14.9834 5.85882C15.5831 5.15294 15.9006 4.27059 15.9359 3.35294C15.9359 3.24706 15.9359 3.10588 15.9006 3C14.8776 3.10588 13.9251 3.6 13.2548 4.37647C12.6551 5.04706 12.3024 5.89412 12.2671 6.81176C12.2671 6.91765 12.2671 7.02353 12.3024 7.12941C12.3729 7.12941 12.4787 7.16471 12.5493 7.16471C13.5018 7.09412 14.3837 6.6 14.9834 5.85882Z" fill="#141516"/>
</svg>
