<?xml version="1.0" encoding="UTF-8"?><svg id="Layer_1" xmlns="http://www.w3.org/2000/svg" xmlns:xlink="http://www.w3.org/1999/xlink" viewBox="0 0 18 18"><defs><linearGradient id="linear-gradient" x1="9" y1="20" x2="9" y2="2" gradientTransform="translate(0 20) scale(1 -1)" gradientUnits="userSpaceOnUse"><stop offset="0" stop-color="#9520f6"/><stop offset=".52" stop-color="#f90075"/><stop offset="1" stop-color="#ffc501"/></linearGradient></defs><path d="M9,0c4.97,0,9,4.03,9,9s-4.03,9-9,9S0,13.97,0,9,4.03,0,9,0Zm3.28,4.27c-.32-.12-.68-.21-1.21-.23-.53-.03-.7-.03-2.06-.03-1.36,0-1.53,0-2.06,.03-.53,.02-.9,.11-1.21,.23-.33,.13-.61,.3-.89,.57-.28,.28-.45,.56-.58,.88-.12,.32-.21,.68-.23,1.21-.03,.53-.03,.7-.03,2.06,0,1.36,0,1.53,.03,2.06,.02,.53,.11,.9,.23,1.21,.13,.33,.3,.61,.57,.89,.28,.28,.56,.45,.88,.58,.32,.12,.68,.21,1.21,.23,.53,.03,.7,.03,2.06,.03,1.36,0,1.53,0,2.06-.03,.53-.02,.9-.11,1.21-.23,.33-.13,.61-.3,.89-.57,.28-.28,.45-.56,.58-.88,.12-.32,.21-.68,.23-1.21,.03-.53,.03-.7,.03-2.06,0-1.36,0-1.53-.03-2.06-.02-.53-.11-.9-.23-1.21-.13-.33-.3-.61-.58-.89-.28-.28-.56-.45-.88-.58Zm-.34,8.63c-.18,.07-.44,.15-.93,.17h0c-.53,.02-.68,.03-2.02,.03-1.34,0-1.49,0-2.02-.03-.49-.02-.75-.11-.93-.17-.23-.09-.4-.2-.57-.38-.17-.18-.28-.34-.37-.58-.07-.18-.15-.44-.17-.93-.02-.53-.03-.69-.03-2.02,0-1.33,0-1.49,.03-2.02,.02-.49,.1-.75,.17-.93,.09-.23,.2-.4,.38-.57,.18-.17,.34-.28,.58-.37,.18-.07,.44-.15,.93-.17,.53-.02,.69-.03,2.02-.03,1.33,0,1.49,0,2.02,.03,.49,.02,.75,.11,.93,.17,.23,.09,.4,.2,.57,.38,.17,.18,.28,.34,.37,.58,.07,.18,.15,.44,.17,.93,.02,.53,.03,.69,.03,2.02,0,1.33,0,1.49-.03,2.02-.02,.49-.11,.75-.17,.93-.09,.23-.2,.4-.38,.57s-.34,.28-.58,.37ZM6.83,6.66c.07-.1,.1-.21,.1-.33,0-.16-.06-.31-.17-.42-.11-.11-.26-.18-.42-.18-.12,0-.23,.03-.33,.1-.1,.07-.18,.16-.22,.27-.05,.11-.06,.23-.03,.35,.02,.12,.08,.22,.16,.31s.19,.14,.31,.16c.12,.02,.24,.01,.35-.03,.11-.05,.2-.12,.27-.22Zm2.16,4.91c1.42,0,2.57-1.14,2.57-2.56,0-1.42-1.14-2.57-2.56-2.57-1.42,0-2.57,1.14-2.57,2.56s1.14,2.57,2.56,2.57Zm1.39-3.49c.18,.27,.28,.6,.28,.93,0,.22-.04,.44-.13,.64-.08,.2-.21,.39-.36,.54-.16,.15-.34,.28-.54,.36-.2,.08-.42,.13-.64,.13-.33,0-.65-.1-.93-.28-.27-.18-.49-.44-.61-.75-.13-.3-.16-.64-.09-.96s.22-.62,.46-.85c.23-.23,.53-.39,.85-.45,.32-.06,.66-.03,.96,.1,.3,.13,.56,.34,.75,.62Z" fill="url(#linear-gradient)" fill-rule="evenodd"/></svg>