<svg width="169" height="30" viewBox="0 0 169 30" fill="none" xmlns="http://www.w3.org/2000/svg">
<path d="M37.04 4.535H41.52C39.875 6.88 38.58 9.505 37.775 12.235L32.805 29.035H27.1L21.01 8.525L14.92 29.035H9.215L4.28 12.375C3.44 9.575 2.18 6.915 0.535 4.535H9.075C8.935 5.27 8.9 6.04 8.9 6.775C8.9 8.035 9.075 9.295 9.425 10.52L14.15 26.235L20.59 4.535H25.525L32 26.34L36.62 10.73C37.215 8.735 37.39 6.6 37.04 4.535ZM57.054 28.86C57.439 28.37 58.419 26.725 58.384 23.61V18.64C58.384 13.46 57.824 9.925 54.464 9.925C50.194 9.925 48.864 13.46 48.864 18.64V23.61C48.864 25.71 49.319 27.145 49.704 27.985L49.739 28.09C49.984 28.545 50.159 28.825 50.299 28.965L50.334 29.035H41.969L42.074 28.86C42.459 28.37 43.439 26.725 43.439 23.61V6.775C43.439 2.925 41.969 1.35 41.969 1.35H44.454C46.904 1.35 48.864 3.31 48.864 5.76V11.5C50.089 9.75 51.559 8.385 54.464 8.385C61.569 8.385 63.844 13.11 63.844 18.92V23.61C63.844 25.71 64.299 27.145 64.684 27.985L64.719 28.09C64.964 28.545 65.139 28.825 65.279 28.965L65.314 29.035H56.949L57.054 28.86ZM70.8661 6.355C69.2561 6.355 67.9261 5.025 67.9261 3.415C67.9261 1.77 69.2561 0.474998 70.8661 0.474998C72.5111 0.474998 73.8061 1.77 73.8061 3.415C73.8061 5.025 72.5111 6.355 70.8661 6.355ZM66.8061 28.86C67.1911 28.37 68.1711 26.725 68.1711 23.61V14.265C68.1711 10.415 66.7011 8.84 66.7011 8.84H69.1511C71.6011 8.84 73.5961 10.8 73.5961 13.25V23.61C73.5961 25.71 74.0161 27.145 74.4361 27.985L74.4711 28.09C74.6811 28.545 74.8911 28.825 74.9961 28.965L75.0661 29.035H66.7011L66.8061 28.86ZM76.631 28.86C77.016 28.37 77.996 26.725 77.996 23.61V6.775C77.996 2.925 76.526 1.35 76.526 1.35H78.976C81.426 1.35 83.421 3.31 83.421 5.76V23.61C83.421 25.71 83.841 27.145 84.261 27.985L84.296 28.09C84.506 28.545 84.716 28.825 84.821 28.965L84.891 29.035H76.526L76.631 28.86ZM108.613 14.265V24.135C108.613 27.285 110.083 29.035 110.083 29.035H106.303C104.833 29.035 103.153 27.845 103.153 26.375C101.893 28.125 100.493 29.455 97.5525 29.455C90.4475 29.455 86.5275 24.765 86.5275 18.92C86.5275 13.11 90.4475 8.385 97.5525 8.385C98.7075 8.385 100.213 8.595 101.088 8.945C103.958 10.17 107.213 10.135 110.083 8.84C110.083 8.84 108.613 10.66 108.613 14.265ZM97.5525 27.915C101.823 27.915 103.153 22.315 103.153 18.92C103.153 13.74 101.823 9.925 97.5525 9.925C94.1925 9.925 91.9525 13.74 91.9525 18.92C91.9525 24.135 94.1925 27.915 97.5525 27.915ZM124.241 8.385C131.311 8.385 134.286 13.11 134.286 18.92C134.286 24.765 131.311 29.455 124.241 29.455C121.056 29.455 118.571 28.02 117.346 26.2C116.716 27.845 114.091 29.035 112.201 29.035V6.775C112.201 2.925 110.731 1.35 110.731 1.35H113.216C115.666 1.35 117.626 3.31 117.626 5.76V10.975C118.886 9.47 121.301 8.385 124.241 8.385ZM123.226 27.915C126.586 27.915 128.826 24.135 128.826 18.92C128.826 13.74 126.586 9.925 123.226 9.925C118.956 9.925 117.626 13.74 117.626 18.92C117.626 22.315 118.991 27.915 123.226 27.915ZM149.282 27.565C154.567 27.565 158.207 22.56 158.207 22.56C156.772 26.34 152.572 29.455 147.392 29.455C140.497 29.455 136.157 24.695 136.157 18.85C136.157 13.04 140.497 8.385 147.392 8.385C152.887 8.385 157.192 11.29 158.417 16.05C158.942 18.08 157.437 19.97 155.337 19.97H141.862C142.667 23.75 144.977 27.565 149.282 27.565ZM145.537 10.135C141.932 11.15 141.337 15.035 141.582 18.43H151.942C152.677 18.43 153.237 17.66 153.097 16.925C152.502 12.935 149.667 9.015 145.537 10.135ZM160.203 28.86C160.588 28.37 161.568 26.725 161.568 23.61V6.775C161.568 2.925 160.098 1.35 160.098 1.35H162.548C164.998 1.35 166.993 3.31 166.993 5.76V23.61C166.993 25.71 167.413 27.145 167.833 27.985L167.868 28.09C168.078 28.545 168.288 28.825 168.393 28.965L168.463 29.035H160.098L160.203 28.86Z" fill="white"/>
</svg>
