<svg width="24" height="24" viewBox="0 0 24 24" fill="none" xmlns="http://www.w3.org/2000/svg">
<path d="M5.9828 2.46777L3.64062 4.80946C3.48593 4.96304 3.36308 5.14565 3.27912 5.34682C3.19516 5.54799 3.15175 5.76376 3.15137 5.98174C3.15099 6.19973 3.19365 6.41565 3.2769 6.61711C3.36016 6.81857 3.48237 7.00161 3.63653 7.15573C3.79068 7.30985 3.97375 7.43203 4.17523 7.51524C4.37671 7.59845 4.59263 7.64106 4.81062 7.64064C5.0286 7.64021 5.24436 7.59675 5.44551 7.51275C5.64666 7.42875 5.82925 7.30586 5.9828 7.15114L8.32448 4.80896C8.62726 4.49679 8.79508 4.07805 8.79172 3.64318C8.78835 3.20831 8.61405 2.79222 8.30648 2.48478C7.99891 2.17734 7.58274 2.00323 7.14788 2.00004C6.71301 1.99686 6.29484 2.16487 5.9828 2.46777ZM11.0567 6.76111L7.93445 9.88335C7.78066 10.0371 7.65867 10.2197 7.57544 10.4207C7.49221 10.6216 7.44937 10.8369 7.44937 11.0544C7.44937 11.2719 7.49221 11.4873 7.57544 11.6882C7.65867 11.8892 7.78066 12.0717 7.93445 12.2255C8.08824 12.3793 8.27082 12.5013 8.47175 12.5845C8.67269 12.6678 8.88805 12.7106 9.10554 12.7106C9.32303 12.7106 9.5384 12.6678 9.73933 12.5845C9.94027 12.5013 10.1228 12.3793 10.2766 12.2255L13.3989 9.10279C13.7095 8.7922 13.884 8.37094 13.884 7.9317C13.884 7.49245 13.7095 7.0712 13.3989 6.76061C13.0883 6.45002 12.667 6.27553 12.2278 6.27553C11.7885 6.27553 11.3673 6.45051 11.0567 6.76111Z" stroke="#F5F5F5" stroke-width="2"/>
<path d="M13.0078 9.49281L19.8845 16.3695C20.3979 16.8829 20.2895 17.8228 19.6433 18.47C18.9966 19.1167 18.0562 19.2246 17.5428 18.7117L10.6661 11.835M9.88553 3.24833L4.42161 8.71225C4.11101 9.02284 3.93652 9.4441 3.93652 9.88334C3.93652 10.3226 4.11101 10.7438 4.42161 11.0544C4.7322 11.365 5.15345 11.5395 5.5927 11.5395C6.03194 11.5395 6.45319 11.365 6.76379 11.0544L12.2272 5.59001C12.3819 5.43646 12.5048 5.25387 12.5888 5.05272C12.6728 4.85157 12.7163 4.63581 12.7167 4.41783C12.7171 4.19984 12.6745 3.98391 12.5913 3.78244C12.5081 3.58096 12.3859 3.39789 12.2318 3.24373C12.0777 3.08958 11.8946 2.96737 11.6932 2.88411C11.4917 2.80086 11.2758 2.7582 11.0578 2.75858C10.8398 2.75896 10.6241 2.80237 10.4229 2.88633C10.2217 2.97029 10.0391 3.09363 9.88553 3.24833Z" stroke="#F5F5F5" stroke-width="2"/>
<path d="M5.6041 11.6063C6.31525 13.8221 6.19689 15.4591 5.24953 16.5174C3.82774 18.105 4.04848 22.0937 7.26011 22.0937C10.4717 22.0937 11.4151 18.105 8.69438 16.7051" stroke="#F5F5F5" stroke-width="2" stroke-linecap="round"/>
</svg>
