<svg width="24" height="24" viewBox="0 0 24 24" fill="none" xmlns="http://www.w3.org/2000/svg">
<path d="M13.9989 12.6618C13.2289 12.7852 12.5639 12.631 12.5147 12.3184C12.4647 12.0058 13.048 11.6532 13.8189 11.5307C14.5889 11.4081 15.253 11.5623 15.3022 11.8741C15.3522 12.1858 14.7689 12.5393 13.9989 12.6618ZM13.2672 15.8793C12.9855 16.0227 12.4697 15.5767 12.1156 14.8824C11.7606 14.1872 11.7014 13.507 11.9839 13.3637C12.2656 13.2203 12.7806 13.6662 13.1355 14.3606C13.4897 15.0549 13.5497 15.736 13.2672 15.8793ZM10.2339 14.5856C9.68224 15.1375 9.05475 15.4034 8.83142 15.18C8.60642 14.9566 8.87308 14.3281 9.42308 13.7763C9.97307 13.2236 10.6014 12.9577 10.8256 13.1811C11.0497 13.4045 10.7839 14.0338 10.2339 14.5856ZM8.12475 10.7429C8.26725 10.4604 8.94725 10.5196 9.64141 10.873C10.3364 11.2264 10.7847 11.7416 10.6414 12.0233C10.4972 12.305 9.81807 12.2475 9.12308 11.8941C8.42809 11.5407 7.98142 11.0247 8.12475 10.7429ZM12.1247 8.70073C12.4372 8.74908 12.5914 9.41426 12.4697 10.1845C12.3489 10.9555 11.9981 11.539 11.6847 11.4907C11.3731 11.4406 11.2181 10.7763 11.3389 10.0069C11.4597 9.23588 11.8114 8.65239 12.1247 8.70073ZM21.9871 10.8088C21.9221 10.3995 21.6996 10.282 21.163 10.1111L18.028 9.11084C18.028 9.11084 16.1255 8.39148 14.7164 9.40842C14.5264 9.54513 14.3297 9.701 14.133 9.86688C14.298 9.67016 14.4539 9.47344 14.5914 9.28339C15.6039 7.87134 14.8822 5.97 14.8822 5.97L13.8764 2.83499C13.7039 2.29902 13.5872 2.07646 13.1764 2.0131C12.7664 1.94809 12.5872 2.12313 12.2589 2.57992L10.3381 5.25481C10.3381 5.25481 9.06808 6.84107 9.59808 8.49735C9.66974 8.71907 9.75724 8.95497 9.85474 9.1942C9.72423 8.98362 9.58609 8.77787 9.44058 8.57737C8.41059 7.17783 6.38143 7.27535 6.38143 7.27535C6.38143 7.27535 3.51646 7.26535 3.08979 7.26535C2.52646 7.26285 2.2798 7.30703 2.09147 7.67629C1.90314 8.04556 2.01397 8.27145 2.3473 8.72491C2.5998 9.07083 4.29728 11.3781 4.29728 11.3781C4.29728 11.3781 5.41228 13.0769 7.14976 13.0836C7.38309 13.0844 7.63309 13.0736 7.89059 13.0552C7.65072 13.1144 7.41307 13.1823 7.1781 13.2586C5.52811 13.8054 4.99561 15.7676 4.99561 15.7676L3.96645 18.896C3.79145 19.4294 3.75646 19.6787 4.04979 19.9713C4.34312 20.2655 4.59145 20.2297 5.12561 20.0529C5.53311 19.9196 8.25059 19.0177 8.25059 19.0177C8.25059 19.0177 10.2106 18.4809 10.7539 16.8304C10.8272 16.6087 10.8947 16.367 10.9564 16.1186C10.9382 16.3646 10.9299 16.6112 10.9314 16.8579C10.9397 18.5959 12.6406 19.7095 12.6406 19.7095L15.2955 21.6542C15.7505 21.986 15.9755 22.0968 16.3455 21.9084C16.7147 21.7201 16.758 21.4725 16.7547 20.909L16.7364 17.6165C16.7364 17.6165 16.8314 15.5868 15.4305 14.559C15.2305 14.4138 15.025 14.2762 14.8147 14.1464C15.0539 14.2422 15.288 14.3297 15.5114 14.3998C17.1664 14.9274 18.7513 13.6546 18.7513 13.6546L21.4213 11.729C21.8771 11.3998 22.0513 11.2189 21.9871 10.8088Z" fill="#F5F5F5"/>
</svg>
