<svg width="20" height="20" viewBox="0 0 20 20" fill="none" xmlns="http://www.w3.org/2000/svg">
<path d="M6.83215 1C6.2837 1 5.8012 1.3532 5.65078 1.86612L3.04736 10.723C2.99506 10.9008 2.98593 11.0879 3.02069 11.2697C3.05545 11.4515 3.13316 11.623 3.24768 11.7707C3.3622 11.9183 3.51042 12.0381 3.68066 12.1206C3.8509 12.2031 4.03852 12.246 4.22873 12.246H5.69591L4.34213 17.5102C4.03666 18.6969 5.54549 19.509 6.41908 18.6294L10.2872 14.7904C10.2285 14.7615 10.1678 14.7367 10.1055 14.7161L8.84315 14.3168C8.52235 14.2061 8.24469 14.0016 8.04832 13.7313C7.85196 13.461 7.74653 13.1382 7.74653 12.8073C7.74653 12.4764 7.85196 12.1536 8.04832 11.8833C8.24469 11.613 8.52235 11.4084 8.84315 11.2978L8.85009 11.2955L8.87092 11.2888L10.0986 10.9018C10.3002 10.8329 10.483 10.7199 10.6326 10.5715C10.7823 10.4231 10.8949 10.2432 10.9618 10.0458L11.3725 8.81641C11.4862 8.50393 11.6969 8.23345 11.9754 8.04226C12.254 7.85107 12.5867 7.74859 12.9276 7.74895H12.9519C13.2927 7.74897 13.625 7.85177 13.9031 8.04316C14.1813 8.23456 14.3915 8.50512 14.5047 8.81754L14.507 8.82429L14.514 8.84341L14.9166 10.0447C14.9282 10.0785 14.9409 10.1133 14.956 10.146L14.9594 10.155L16.4602 8.66569L16.4636 8.66119C17.2053 7.91093 16.6719 6.62413 15.5773 6.62413H12.6106L14.0697 2.58151L14.0731 2.57251C14.1348 2.39279 14.1516 2.2014 14.1222 2.01413C14.0927 1.82686 14.0179 1.64908 13.9038 1.49546C13.7898 1.34185 13.6398 1.21681 13.4662 1.13066C13.2927 1.04451 13.1005 0.999724 12.9056 1H6.83215ZM13.3881 9.19098L13.7908 10.3957C13.9162 10.7618 14.1276 11.0945 14.4085 11.3673C14.6893 11.6401 15.0316 11.8454 15.4084 11.967L16.6488 12.3585L16.6731 12.3652C16.7687 12.3979 16.8514 12.4587 16.91 12.5391C16.9685 12.6195 17 12.7155 17 12.814C17 12.9125 16.9685 13.0086 16.91 13.089C16.8514 13.1694 16.7687 13.2301 16.6731 13.2628L15.4338 13.6543C15.0569 13.7758 14.7144 13.9811 14.4333 14.2539C14.1523 14.5267 13.9407 14.8594 13.8151 15.2257L13.4124 16.4292C13.3788 16.5221 13.3163 16.6026 13.2336 16.6595C13.1509 16.7165 13.0521 16.747 12.9508 16.747C12.8494 16.747 12.7506 16.7165 12.6679 16.6595C12.5852 16.6026 12.5227 16.5221 12.4891 16.4292L12.0853 15.2257C11.9406 14.8004 11.6808 14.4207 11.3332 14.1267C11.0798 13.9133 10.7857 13.7505 10.4677 13.6475L9.2273 13.2561C9.13172 13.2234 9.04894 13.1627 8.99038 13.0823C8.93182 13.0019 8.90037 12.9058 8.90037 12.8073C8.90037 12.7088 8.93182 12.6127 8.99038 12.5323C9.04894 12.4519 9.13172 12.3912 9.2273 12.3585L10.4677 11.967C10.8399 11.8422 11.1773 11.6354 11.4537 11.3628C11.7301 11.0902 11.9379 10.7592 12.061 10.3957L12.4636 9.19211C12.497 9.0988 12.5595 9.01791 12.6423 8.96068C12.7252 8.90344 12.8243 8.87269 12.9259 8.87269C13.0275 8.87269 13.1266 8.90344 13.2095 8.96068C13.2923 9.01791 13.3547 9.0988 13.3881 9.19211V9.19098Z" fill="#F5F5F5"/>
</svg>
