<svg width="24" height="24" viewBox="0 0 24 24" fill="none" xmlns="http://www.w3.org/2000/svg">
<path fill-rule="evenodd" clip-rule="evenodd" d="M7.75416 3.24647C8.14746 2.8295 8.80947 2.81061 9.2462 3.20389C9.93803 3.8269 10.2668 3.8381 10.4614 3.80375C10.7896 3.74583 11.2518 3.46815 12.0834 2.71068C12.5026 2.32889 13.1568 2.35368 13.5658 2.76685L22.8183 12.1133C23.2377 12.537 23.2444 13.2114 22.8333 13.6225L14.475 21.9808C14.0624 22.3934 13.3849 22.3849 12.9618 21.9618L1.9422 10.9422C1.52759 10.5276 1.50988 9.86656 1.90224 9.45059L7.75416 3.24647ZM7.87572 13.8873L10.0167 16.0283L12.7016 13.3434L10.5606 11.2024L7.87572 13.8873ZM9.02844 9.67017L6.34351 12.3551L4.181 10.1926L6.78749 7.42922L9.02844 9.67017ZM12.0549 9.70817L14.1959 11.8492L16.9032 9.14181L14.773 6.98998L12.0549 9.70817ZM13.2486 5.45003L10.5226 8.17597L8.23805 5.89136L8.68004 5.42277C9.36516 5.84834 10.0907 6.05174 10.8845 5.91164C11.568 5.79101 12.1896 5.42509 12.7731 4.96974L13.2486 5.45003ZM18.4277 10.6818L15.7281 13.3814L17.8691 15.5224L20.5579 12.8336L18.4277 10.6818ZM16.3749 17.0166L14.2339 14.8756L11.5489 17.5605L13.6899 19.7015L16.3749 17.0166Z" fill="#F5F5F5"/>
</svg>
