<svg width="24" height="24" viewBox="0 0 24 24" fill="none" xmlns="http://www.w3.org/2000/svg">
<path fill-rule="evenodd" clip-rule="evenodd" d="M7.82857 3C7.82857 1.89543 8.67283 1 9.71429 1H13.4857C14.5272 1 15.3714 1.89543 15.3714 3V4C16.7857 4 17.294 4.21071 17.6477 4.58579C18.0013 4.96086 18.2 5.46957 18.2 6V7.5V10.5V13.5V21C18.2 21.5304 18.0013 22.0391 17.6477 22.4142C17.294 22.7893 16.8144 23 16.3143 23H6.88571C6.38559 23 5.90595 22.7893 5.55231 22.4142C5.19867 22.0391 5 21.5304 5 21V13.5V10.5V7.5V6C5 5.46957 5.19867 4.96086 5.55231 4.58579C5.90595 4.21071 6.41429 4 7.82857 4V3ZM6.88571 19V21H16.3143V19H6.88571ZM16.3143 8H6.88571V7.5L6.88571 6H7.82857H15.3714H16.3143V7.49868L16.3143 7.5V8ZM11.6 10.5C12.1207 10.5 12.5429 10.9477 12.5429 11.5V12.5H13.4857C14.0064 12.5 14.4286 12.9477 14.4286 13.5C14.4286 14.0523 14.0064 14.5 13.4857 14.5H12.5429V15.5C12.5429 16.0523 12.1207 16.5 11.6 16.5C11.0793 16.5 10.6571 16.0523 10.6571 15.5V14.5H9.71429C9.19356 14.5 8.77143 14.0523 8.77143 13.5C8.77143 12.9477 9.19356 12.5 9.71429 12.5H10.6571V11.5C10.6571 10.9477 11.0793 10.5 11.6 10.5Z" fill="#F5F5F5"/>
</svg>
