<svg width="24" height="24" viewBox="0 0 24 24" fill="none" xmlns="http://www.w3.org/2000/svg">
<path fill-rule="evenodd" clip-rule="evenodd" d="M9.25583 2.1389L6.53107 2.61727C4.78708 2.92346 3.29793 4.06149 2.53461 5.67144C1.83852 7.13957 1.82141 8.84266 2.48784 10.3247L2.60611 10.5877C2.87405 11.1836 3.04569 11.8188 3.11452 12.4693L3.23748 13.6315C3.54425 16.5308 5.65886 18.9062 8.4854 19.5265L8.79509 19.5945C9.61819 19.7751 10.3877 20.1479 11.0418 20.683L11.2812 20.8788C13.0146 22.2968 15.4727 22.3776 17.2942 21.0766C17.6459 20.8254 17.9638 20.5292 18.2398 20.1953L20.0316 18.0282C21.6266 16.0992 22.3006 13.5614 21.8752 11.0872C21.5311 9.08593 20.4922 7.27324 18.9441 5.9731L16.7971 4.17C15.1276 2.76786 13.0232 2 10.85 2C10.3157 2 9.78229 2.04647 9.25583 2.1389ZM18.4929 12.4258C18.0798 12.8403 17.4115 12.8388 17.0003 12.4224L16.1949 11.6069C16.0332 11.4431 15.7895 11.3937 15.5776 11.4817C14.0995 12.0949 12.421 11.2747 11.9833 9.72513L11.582 8.30492C11.3526 7.49291 10.6166 6.93283 9.77902 6.93283L9.11273 6.93283C8.52982 6.93283 8.05727 6.45652 8.05727 5.86897C8.05727 5.28141 8.52982 4.8051 9.11273 4.8051L9.77902 4.8051C11.5598 4.8051 13.1245 5.99584 13.6122 7.72218L14.0135 9.14239C14.1061 9.47031 14.4613 9.64389 14.7741 9.51411C15.7756 9.09858 16.9268 9.3321 17.6909 10.1058L18.4963 10.9213C18.9075 11.3377 18.906 12.0113 18.4929 12.4258ZM17.4711 16.737C18.0336 16.8913 18.6136 16.5568 18.7667 15.9898C18.9198 15.4229 18.5879 14.8382 18.0254 14.6839L17.2819 14.48C15.7426 14.0577 14.1009 14.5884 13.0925 15.8344C12.724 16.2896 12.7914 16.9598 13.243 17.3312C13.6947 17.7027 14.3596 17.6347 14.7281 17.1795C15.2094 16.5848 15.9929 16.3315 16.7276 16.533L17.4711 16.737ZM10.1224 16.6776C10.6523 16.9224 11.2788 16.6879 11.5217 16.1537C11.7645 15.6196 11.5319 14.9882 11.002 14.7433C10.4317 14.4799 10.0661 13.9056 10.0661 13.2733L10.0661 13.0357C10.0661 11.4915 9.20844 10.0773 7.84496 9.37329L6.71543 8.79004C6.19664 8.52215 5.56062 8.72891 5.29484 9.25184C5.02907 9.77477 5.23419 10.4159 5.75299 10.6837L6.88252 11.267C7.54099 11.607 7.9552 12.29 7.9552 13.0357L7.9552 13.2733C7.9552 14.7375 8.80185 16.0674 10.1224 16.6776Z" fill="#F5F5F5"/>
</svg>
