<svg width="24" height="24" viewBox="0 0 24 24" fill="none" xmlns="http://www.w3.org/2000/svg">
<path d="M2 18C2 16.8954 2.89543 16 4 16H15C16.1046 16 17 16.8954 17 18C17 19.1046 16.1046 20 15 20H4C2.89543 20 2 19.1046 2 18ZM20.5 16.75C20.5 16.3358 20.8358 16 21.25 16C21.6642 16 22 16.3358 22 16.75V19.25C22 19.6642 21.6642 20 21.25 20C20.8358 20 20.5 19.6642 20.5 19.25V16.75ZM18 16.75C18 16.3358 18.3358 16 18.75 16C19.1642 16 19.5 16.3358 19.5 16.75V19.25C19.5 19.6642 19.1642 20 18.75 20C18.3358 20 18 19.6642 18 19.25V16.75ZM18.85 7.73C19.47 7.12 19.85 6.28 19.85 5.35C19.85 3.75572 18.736 2.42137 17.2441 2.08294C16.8401 1.99131 16.5 2.33579 16.5 2.75C16.5 3.16421 16.8494 3.48715 17.2288 3.65334C17.8805 3.93878 18.35 4.59191 18.35 5.35C18.35 6.10809 17.8805 6.76122 17.2288 7.04666C16.8494 7.21285 16.5 7.53579 16.5 7.95C16.5 8.36421 16.839 8.6925 17.246 8.76934C19.1187 9.12287 20.5 10.7855 20.5 12.77V14.25C20.5 14.6642 20.8358 15 21.25 15C21.6642 15 22 14.6642 22 14.25V12.76C22 10.54 20.72 8.62 18.85 7.73ZM16.03 10.2H14.5C13.5 10.2 12.65 9.22 12.65 8.2C12.65 7.44342 13.1177 6.84639 13.7673 6.58848C14.1523 6.43564 14.5 6.11421 14.5 5.7C14.5 5.28579 14.1601 4.94162 13.7562 5.0336C13.1457 5.17264 12.581 5.48134 12.1312 5.93119C11.5029 6.55944 11.15 7.41152 11.15 8.3C11.15 9.18848 11.5029 10.0406 12.1312 10.6688C12.7594 11.2971 13.6115 11.65 14.5 11.65H16.03C17.08 11.65 18 12.39 18 13.7V14.25C18 14.6642 18.3358 15 18.75 15C19.1642 15 19.5 14.6642 19.5 14.25V13.36C19.5 11.55 17.9 10.2 16.03 10.2Z" fill="#F5F5F5"/>
</svg>
