<svg width="24" height="24" viewBox="0 0 24 24" fill="none" xmlns="http://www.w3.org/2000/svg">
<path d="M2 4.85714C2 3.28125 3.28125 2 4.85714 2C5.15178 2 5.4375 2.04464 5.70536 2.12946C6.70982 2.44196 7.85268 2.79464 8.875 2.53125C12.2321 1.67857 15.8571 3.02232 18.4152 5.58036C20.9732 8.13839 22.3214 11.7679 21.4688 15.125C21.2098 16.1473 21.558 17.2857 21.8705 18.2946C21.9554 18.5625 22 18.8482 22 19.1429C22 20.7188 20.7187 22 19.1429 22C18.8482 22 18.5625 21.9554 18.2902 21.8705C17.2857 21.558 16.1429 21.2054 15.1205 21.4688C11.7634 22.3214 8.13839 20.9777 5.58036 18.4196C3.02232 15.8616 1.67411 12.2366 2.53125 8.87946C2.79018 7.85714 2.44196 6.71875 2.12946 5.70982C2.04464 5.44196 2 5.15625 2 4.85714ZM12.5134 6.25893C14.9509 6.97321 17.0268 9.04911 17.7411 11.4866C17.8527 11.8661 18.25 12.0804 18.6295 11.9732C19.0089 11.8661 19.2232 11.4643 19.1161 11.0848C18.2634 8.17857 15.8259 5.73661 12.9152 4.88393C12.5357 4.77232 12.1384 4.99107 12.0268 5.37054C11.9152 5.75 12.1339 6.14732 12.5134 6.25893Z" fill="#F5F5F5"/>
</svg>
