<svg width="24" height="24" viewBox="0 0 24 24" fill="none" xmlns="http://www.w3.org/2000/svg">
<path fill-rule="evenodd" clip-rule="evenodd" d="M2.07615 2.61663C2.23093 2.24294 2.59558 1.9993 3.00005 1.9993L5.7001 1.9993C6.2524 1.9993 6.70012 2.44702 6.70012 2.99932C6.70012 3.55161 6.2524 3.99934 5.7001 3.99934L5.41431 3.99934L6.75504 5.34007C7.2309 3.84628 8.6297 2.76427 10.2812 2.76427C11.6935 2.76427 12.921 3.55555 13.5446 4.71897C14.1122 4.36471 14.7827 4.16 15.501 4.16C17.5445 4.16 19.2011 5.81658 19.2011 7.86007C19.2011 8.57849 18.9964 9.24908 18.642 9.81669C19.8054 10.4402 20.5967 11.6677 20.5967 13.08C20.5967 13.7971 20.3927 14.4665 20.0395 15.0335C21.2061 15.6561 22 16.8853 22 18.2999C22 20.3434 20.3434 22 18.2999 22C16.8852 22 15.6559 21.206 15.0334 20.0394C14.4665 20.3924 13.7971 20.5964 13.0801 20.5964C11.6678 20.5964 10.4403 19.8051 9.81673 18.6417C9.24916 18.9959 8.57862 19.2006 7.86027 19.2006C5.81678 19.2006 4.1602 17.5441 4.1602 15.5006C4.1602 14.7821 4.36494 14.1116 4.71926 13.5439C3.5559 12.9204 2.76466 11.6929 2.76466 10.2806C2.76466 8.62899 3.84685 7.2301 5.34083 6.75434L2.29293 3.70644C2.00692 3.42043 1.92137 2.99031 2.07615 2.61663ZM15.2912 12.5192C15.2722 12.6019 15.2504 12.6835 15.2259 12.764C15.2066 12.8664 15.1965 12.972 15.1965 13.08C15.1965 13.5197 15.3634 13.9203 15.6373 14.2221C15.6772 14.2603 15.7163 14.2993 15.7544 14.3392C16.0562 14.6131 16.4569 14.78 16.8966 14.78C17.8355 14.78 18.5966 14.0189 18.5966 13.08C18.5966 12.1411 17.8355 11.38 16.8966 11.38C16.1542 11.38 15.523 11.8558 15.2912 12.5192ZM13.3856 11.6851C13.3856 11.7931 13.3755 11.8988 13.3563 12.0012C13.3318 12.0817 13.3099 12.1633 13.2909 12.246C13.1205 12.7338 12.734 13.1203 12.2461 13.2906C12.1635 13.3096 12.082 13.3314 12.0017 13.3558C11.8993 13.3751 11.7936 13.3852 11.6855 13.3852C10.7466 13.3852 9.98551 12.624 9.98551 11.6851C9.98551 10.7462 10.7466 9.98511 11.6855 9.98511C12.6244 9.98511 13.3856 10.7462 13.3856 11.6851ZM13.0801 15.1963C13.5198 15.1963 13.9205 15.3632 14.2223 15.6371C14.2604 15.677 14.2995 15.716 14.3394 15.7542C14.6133 16.056 14.7801 16.4567 14.7801 16.8963C14.7801 17.8352 14.019 18.5963 13.0801 18.5963C12.1412 18.5963 11.3801 17.8352 11.3801 16.8963C11.3801 16.1538 11.8561 15.5225 12.5195 15.2908C12.6021 15.2718 12.6836 15.25 12.764 15.2256C12.8664 15.2063 12.9721 15.1963 13.0801 15.1963ZM9.02208 7.60658C9.06188 7.64466 9.10084 7.68361 9.13891 7.72342C9.44073 7.99741 9.84147 8.16437 10.2812 8.16437C11.2201 8.16437 11.9812 7.40324 11.9812 6.46434C11.9812 5.52544 11.2201 4.7643 10.2812 4.7643C9.34231 4.7643 8.58118 5.52544 8.58118 6.46434C8.58118 6.90405 8.74813 7.30477 9.02208 7.60658ZM6.46473 8.5806C6.90446 8.5806 7.30519 8.74755 7.60701 9.02152C7.6451 9.06135 7.68408 9.10033 7.72391 9.13843C7.99784 9.44023 8.16477 9.84094 8.16477 10.2806C8.16477 11.2195 7.40364 11.9807 6.46474 11.9807C5.52583 11.9807 4.7647 11.2195 4.7647 10.2806C4.7647 9.34173 5.52583 8.5806 6.46473 8.5806ZM13.801 7.86007C13.801 8.79897 14.5621 9.5601 15.501 9.5601C16.4399 9.5601 17.2011 8.79897 17.2011 7.86007C17.2011 6.92117 16.4399 6.16004 15.501 6.16004C14.5621 6.16004 13.801 6.92117 13.801 7.86007ZM7.86027 17.2006C6.92137 17.2006 6.16024 16.4395 6.16024 15.5006C6.16024 14.5617 6.92137 13.8005 7.86027 13.8005C8.79917 13.8005 9.5603 14.5617 9.5603 15.5006C9.5603 16.4395 8.79917 17.2006 7.86027 17.2006ZM18.2999 20C17.361 20 16.5999 19.2388 16.5999 18.2999C16.5999 17.361 17.361 16.5999 18.2999 16.5999C19.2388 16.5999 20 17.361 20 18.2999C20 19.2388 19.2388 20 18.2999 20Z" fill="#F5F5F5"/>
</svg>
