<svg width="24" height="24" viewBox="0 0 24 24" fill="none" xmlns="http://www.w3.org/2000/svg">
<path fill-rule="evenodd" clip-rule="evenodd" d="M21.246 12.4325C23.7425 14.9922 23.0553 18.4616 20.7549 20.4259C18.2917 22.5292 14.9857 22.6482 12.4319 20.0297C11.2205 18.7876 11.0407 17.1206 10.6314 16.2163C10.277 15.4333 9.88774 14.7446 9.10685 14.1319C8.32164 13.5159 7.19492 13.2116 6.53685 12.9412C5.73093 12.6101 4.66537 12.5763 3.56719 11.4503C1.13012 8.95099 1.79446 5.43553 3.78881 3.39012C5.7837 1.34579 9.23563 1.56111 11.6178 4.00412C12.7158 5.12997 12.7812 6.34421 13.1041 7.17066C13.3676 7.84528 13.607 8.45803 14.2044 9.07079C14.8219 9.70402 15.5348 10.0433 16.2989 10.4069C17.1806 10.8265 19.5385 10.6817 21.246 12.4325ZM13.7331 17.1514C13.7333 17.2679 13.6968 17.3813 13.6291 17.4748C13.5614 17.5684 13.4661 17.6371 13.3573 17.6707C13.2486 17.7043 13.1321 17.7011 13.0253 17.6615C12.9184 17.6219 12.8269 17.5481 12.7642 17.451C12.518 17.0664 12.307 16.6593 12.1339 16.2349C11.333 14.1017 9.91082 12.4961 8.41624 12.0287C8.28215 11.9868 8.16978 11.892 8.10385 11.7652C8.03791 11.6383 8.02381 11.4899 8.06466 11.3524C8.1055 11.2149 8.19794 11.0997 8.32164 11.0321C8.44533 10.9645 8.59016 10.95 8.72425 10.9919C10.5237 11.5547 12.2053 13.4078 13.1139 15.8297C13.2619 16.1899 13.4431 16.5393 13.6454 16.8529C13.7028 16.9413 13.7333 17.0452 13.7331 17.1514ZM18.4546 19.8837L18.4546 19.8956C18.4514 20.0392 18.3928 20.1756 18.2917 20.275C18.1906 20.3744 18.0552 20.4287 17.9152 20.4259C16.7719 20.4004 15.318 20.2174 14.216 19.017C14.1242 18.9116 14.0761 18.7736 14.082 18.6323C14.088 18.4911 14.1475 18.3579 14.2478 18.261C14.3482 18.1641 14.4815 18.1112 14.6193 18.1136C14.7571 18.116 14.8886 18.1735 14.9857 18.2738C15.8136 19.1762 16.9426 19.3203 17.9379 19.342C18.076 19.3452 18.2073 19.4037 18.3038 19.5049C18.4004 19.6062 18.4545 19.7421 18.4546 19.8837ZM18.08 17.6492C18.0801 17.7318 18.0618 17.8134 18.0264 17.8877C17.991 17.9619 17.9396 18.0269 17.8759 18.0776C17.8123 18.1283 17.7382 18.1634 17.6593 18.1802C17.5804 18.197 17.4988 18.1951 17.4207 18.1746C16.2632 17.8702 14.6328 17.2094 13.8419 14.9922C13.8004 14.8589 13.8108 14.7143 13.8709 14.5886C13.931 14.463 14.0362 14.366 14.1644 14.318C14.2926 14.27 14.4339 14.2747 14.5589 14.3311C14.6838 14.3875 14.7826 14.4913 14.8346 14.6206C15.4469 16.3383 16.6784 16.8616 17.6833 17.1259C17.7968 17.1554 17.8975 17.2229 17.9694 17.3177C18.0412 17.4124 18.0802 17.5291 18.08 17.6492ZM12.247 8.07923C12.2463 8.20663 12.2019 8.32973 12.1215 8.4269C12.0411 8.52408 11.93 8.58914 11.8075 8.61066C11.685 8.63219 11.5591 8.6088 11.4517 8.5446C11.3444 8.48041 11.2625 8.37951 11.2205 8.25961C10.4227 5.94173 8.87006 4.54959 6.47525 4.00412C6.18996 3.93912 6.01351 3.64823 6.07426 3.35789C6.13766 3.06592 6.41978 2.88174 6.70453 2.9462C9.44644 3.57131 11.3013 5.23753 12.2174 7.89939C12.2367 7.95728 12.2467 8.01803 12.247 8.07923ZM6.41082 10.6817C6.88235 10.6817 7.2646 10.2898 7.2646 9.80632C7.2646 9.32285 6.88235 8.93092 6.41082 8.93092C5.9393 8.93092 5.55705 9.32285 5.55705 9.80632C5.55705 10.2898 5.9393 10.6817 6.41082 10.6817ZM5.55705 6.30472C5.55705 6.78819 5.1748 7.18012 4.70328 7.18012C4.23175 7.18012 3.8495 6.78819 3.8495 6.30472C3.8495 5.82125 4.23175 5.42933 4.70328 5.42932C5.1748 5.42932 5.55705 5.82125 5.55705 6.30472ZM8.11838 8.05552C8.5899 8.05552 8.97215 7.66359 8.97215 7.18012C8.97215 6.69665 8.5899 6.30472 8.11838 6.30472C7.64685 6.30472 7.2646 6.69665 7.2646 7.18012C7.2646 7.66359 7.64685 8.05552 8.11838 8.05552Z" fill="#F5F5F5"/>
</svg>
