<svg width="24" height="24" viewBox="0 0 24 24" fill="none" xmlns="http://www.w3.org/2000/svg">
<path fill-rule="evenodd" clip-rule="evenodd" d="M14.1288 13.6551C13.1132 11.5283 12.3057 8.92067 11.8873 6.67606C11.0817 9.11883 9.91548 11.6457 9.11493 13.278C10.1099 13.6616 10.9345 14.3894 11.4443 15.3158C11.1582 15.9827 11 16.7176 11 17.4894C11 18.2613 11.1582 18.9961 11.4443 19.663C10.6777 21.0562 9.19922 22 7.5 22C5.01465 22 3 19.9805 3 17.4894C3 15.0445 4.94066 13.0538 7.3623 12.9809C8.47126 10.7466 10.6754 6.02932 11.0462 2.89666C11.102 2.42573 11.4667 2.03344 11.9388 2.00198C12.3666 1.97347 12.744 2.25515 12.7896 2.68251C12.7916 2.70159 12.7936 2.7208 12.7957 2.74015C12.8213 2.98124 12.8491 3.24363 12.8998 3.52731C13.5748 3.42235 15.9373 3.42235 18.5248 5.3116C20.7786 6.86917 20.9265 9.46686 20.8529 10.7036C20.8278 11.1242 20.4971 11.4385 20.0768 11.4298C19.0814 11.4091 17.1402 11.1409 15.0373 9.6149L14.0248 8.67029L14.0248 8.67031C14.5154 10.2264 15.0059 11.7824 15.6457 13.06C15.9223 13.0067 16.2079 12.9788 16.5 12.9788C18.9854 12.9788 21 14.9983 21 17.4894C21 19.9805 18.9854 22 16.5 22C14.0146 22 12 19.9805 12 17.4894C12 15.8705 12.8509 14.4508 14.1288 13.6551ZM5.5 17.4894C5.5 16.3822 6.39543 15.4847 7.5 15.4847C7.77614 15.4847 8 15.2603 8 14.9835C8 14.7067 7.77614 14.4823 7.5 14.4823C5.84315 14.4823 4.5 15.8287 4.5 17.4894C4.5 17.7662 4.72386 17.9906 5 17.9906C5.27614 17.9906 5.5 17.7662 5.5 17.4894ZM14.5 17.4894C14.5 16.3822 15.3954 15.4847 16.5 15.4847C16.7761 15.4847 17 15.2603 17 14.9835C17 14.7067 16.7761 14.4823 16.5 14.4823C14.8431 14.4823 13.5 15.8287 13.5 17.4894C13.5 17.7662 13.7239 17.9906 14 17.9906C14.2761 17.9906 14.5 17.7662 14.5 17.4894Z" fill="#F5F5F5"/>
</svg>
