<svg width="24" height="24" viewBox="0 0 24 24" fill="none" xmlns="http://www.w3.org/2000/svg">
<path fill-rule="evenodd" clip-rule="evenodd" d="M4.5 15.2227H9.09312L15.7975 18.7746C16.7965 19.3039 18 18.5802 18 17.4501V13.9685C19.6961 13.7261 21 12.2682 21 10.5059C21 8.7437 19.6961 7.28583 18 7.04335V4.50121C18 3.37113 16.7965 2.64737 15.7975 3.17666L9.09312 6.72864H4.5C3.67157 6.72864 3 7.39983 3 8.22779V13.7235C3 14.5515 3.67157 15.2227 4.5 15.2227ZM5 16.0028H9V19.5008C9 20.3288 8.32843 21 7.5 21H6.5C5.67157 21 5 20.3288 5 19.5008V16.0028Z" fill="#F5F5F5"/>
</svg>
