<svg width="53" height="30" viewBox="0 0 53 30" fill="none" xmlns="http://www.w3.org/2000/svg">
<path fill-rule="evenodd" clip-rule="evenodd" d="M5.5 0C2.73858 0 0.5 2.23858 0.5 5V9C0.5 9.55229 0.947715 10 1.5 10C2.05228 10 2.5 9.55229 2.5 9V5C2.5 3.34315 3.84315 2 5.5 2H9.5C10.0523 2 10.5 1.55228 10.5 1C10.5 0.447715 10.0523 0 9.5 0H5.5ZM47.5 0C50.2614 0 52.5 2.23858 52.5 5V9C52.5 9.55229 52.0523 10 51.5 10C50.9477 10 50.5 9.55229 50.5 9V5C50.5 3.34315 49.1569 2 47.5 2H43.5C42.9477 2 42.5 1.55228 42.5 1C42.5 0.447715 42.9477 0 43.5 0H47.5ZM47.5 30C50.2614 30 52.5 27.7614 52.5 25V21C52.5 20.4477 52.0523 20 51.5 20C50.9477 20 50.5 20.4477 50.5 21V25C50.5 26.6569 49.1569 28 47.5 28H43.5C42.9477 28 42.5 28.4477 42.5 29C42.5 29.5523 42.9477 30 43.5 30H47.5ZM0.5 25C0.5 27.7614 2.73858 30 5.5 30H9.5C10.0523 30 10.5 29.5523 10.5 29C10.5 28.4477 10.0523 28 9.5 28H5.5C3.84315 28 2.5 26.6569 2.5 25V21C2.5 20.4477 2.05228 20 1.5 20C0.947715 20 0.5 20.4477 0.5 21V25ZM23.5 6.5C23.5 6.22386 23.7239 6 24 6H25C25.2761 6 25.5 6.22386 25.5 6.5V23.5C25.5 23.7761 25.2761 24 25 24H24C23.7239 24 23.5 23.7761 23.5 23.5V6.5ZM16 6C15.7239 6 15.5 6.22386 15.5 6.5V23.5C15.5 23.7761 15.7239 24 16 24H17C17.2761 24 17.5 23.7761 17.5 23.5V6.5C17.5 6.22386 17.2761 6 17 6H16ZM41.5 6.5C41.5 6.22386 41.7239 6 42 6H43C43.2761 6 43.5 6.22386 43.5 6.5V23.5C43.5 23.7761 43.2761 24 43 24H42C41.7239 24 41.5 23.7761 41.5 23.5V6.5ZM33 6C32.7239 6 32.5 6.22386 32.5 6.5V23.5C32.5 23.7761 32.7239 24 33 24H36C36.2761 24 36.5 23.7761 36.5 23.5V6.5C36.5 6.22386 36.2761 6 36 6H33ZM10.5 6.5C10.5 6.22386 10.7239 6 11 6H13C13.2761 6 13.5 6.22386 13.5 6.5V23.5C13.5 23.7761 13.2761 24 13 24H11C10.7239 24 10.5 23.7761 10.5 23.5V6.5ZM20 6C19.7239 6 19.5 6.22386 19.5 6.5V23.5C19.5 23.7761 19.7239 24 20 24C20.2761 24 20.5 23.7761 20.5 23.5V6.5C20.5 6.22386 20.2761 6 20 6ZM6.5 6.5C6.5 6.22386 6.72386 6 7 6C7.27614 6 7.5 6.22386 7.5 6.5V23.5C7.5 23.7761 7.27614 24 7 24C6.72386 24 6.5 23.7761 6.5 23.5V6.5ZM39 6C38.7239 6 38.5 6.22386 38.5 6.5V23.5C38.5 23.7761 38.7239 24 39 24C39.2761 24 39.5 23.7761 39.5 23.5V6.5C39.5 6.22386 39.2761 6 39 6ZM28.5 6.5C28.5 6.22386 28.7239 6 29 6C29.2761 6 29.5 6.22386 29.5 6.5V23.5C29.5 23.7761 29.2761 24 29 24C28.7239 24 28.5 23.7761 28.5 23.5V6.5ZM46 6C45.7239 6 45.5 6.22386 45.5 6.5V23.5C45.5 23.7761 45.7239 24 46 24C46.2761 24 46.5 23.7761 46.5 23.5V6.5C46.5 6.22386 46.2761 6 46 6Z" fill="#F5F5F5"/>
</svg>
