<svg width="24" height="24" viewBox="0 0 24 24" fill="none" xmlns="http://www.w3.org/2000/svg">
<path fill-rule="evenodd" clip-rule="evenodd" d="M5.39737 9.30148C3.52689 9.60482 2.09961 11.2124 2.09961 13.15C2.09961 15.3039 3.86334 17.05 6.039 17.05H6.9481V11.3287C6.94983 8.17208 9.30983 5.8 12.0996 5.8C14.8756 5.8 17.226 8.14868 17.2509 11.282V14.6918C17.2309 16.7953 15.7028 18.5419 13.6854 18.9228C13.33 18.3679 12.708 18 12 18C10.8954 18 10 18.8954 10 20C10 21.1046 10.8954 22 12 22C12.8511 22 13.5779 21.4684 13.8668 20.7192C16.0038 20.3734 17.7743 18.9481 18.5882 17.0272C20.5625 16.816 22.0994 15.1607 22.0994 13.15C22.0994 11.2125 20.6722 9.60495 18.8019 9.30153C17.9754 6.24392 15.323 4 12.0996 4C8.8762 4 6.22381 6.2439 5.39737 9.30148Z" fill="#F5F5F5"/>
</svg>
