<svg width="24" height="24" viewBox="0 0 24 24" fill="none" xmlns="http://www.w3.org/2000/svg">
<path fill-rule="evenodd" clip-rule="evenodd" d="M12 2H6C5.46957 2 4.96086 2.21071 4.58579 2.58579C4.21071 2.96086 4 3.46957 4 4V20C4 20.5304 4.21071 21.0391 4.58579 21.4142C4.96086 21.7893 5.46957 22 6 22H18C18.5304 22 19.0391 21.7893 19.4142 21.4142C19.7893 21.0391 20 20.5304 20 20V10H16C14.9391 10 13.9217 9.57857 13.1716 8.82843C12.4214 8.07828 12 7.06087 12 6V2ZM19.9705 8C19.9447 7.85143 19.9021 7.7059 19.8433 7.56624C19.7399 7.32068 19.5885 7.09824 19.398 6.912L14.958 2.57C14.691 2.30896 14.3586 2.12999 14 2.04905V6C14 6.53043 14.2107 7.03914 14.5858 7.41421C14.9609 7.78929 15.4696 8 16 8H19.9705ZM6 13C6 12.4477 6.48842 12 7.09091 12H16.9091C17.5116 12 18 12.4477 18 13C18 13.5523 17.5116 14 16.9091 14H7.09091C6.48842 14 6 13.5523 6 13ZM7 7C6.44772 7 6 7.44772 6 8C6 8.55228 6.44772 9 7 9H10C10.5523 9 11 8.55228 11 8C11 7.44772 10.5523 7 10 7H7ZM6 18C6 17.4477 6.48842 17 7.09091 17H16.9091C17.5116 17 18 17.4477 18 18C18 18.5523 17.5116 19 16.9091 19H7.09091C6.48842 19 6 18.5523 6 18Z" fill="#F5F5F5"/>
</svg>
