<svg width="24" height="24" viewBox="0 0 24 24" fill="none" xmlns="http://www.w3.org/2000/svg">
<path d="M12.7071 15.7929C12.3166 16.1834 11.6834 16.1834 11.2929 15.7929L7.06981 11.5698C6.68412 11.1841 6.67865 10.5605 7.05752 10.1681L7.24311 9.97588C7.63149 9.57363 8.27424 9.56799 8.66962 9.96337L10.875 12.1687V4C10.875 3.44771 11.3227 3 11.875 3H12.125C12.6773 3 13.125 3.44772 13.125 4V12.1687L15.3304 9.96337C15.7258 9.56799 16.3685 9.57363 16.7569 9.97588L16.9425 10.1681C17.3213 10.5605 17.3159 11.1841 16.9302 11.5698L12.7071 15.7929ZM5.25 21C4.63125 21 4.10138 20.7795 3.66038 20.3385C3.21938 19.8975 2.99925 19.368 3 18.75V16.375C3 15.8227 3.44772 15.375 4 15.375H4.25C4.80229 15.375 5.25 15.8227 5.25 16.375V17.75C5.25 18.3023 5.69772 18.75 6.25 18.75H17.75C18.3023 18.75 18.75 18.3023 18.75 17.75V16.375C18.75 15.8227 19.1977 15.375 19.75 15.375H20C20.5523 15.375 21 15.8227 21 16.375V18.75C21 19.3687 20.7795 19.8986 20.3385 20.3396C19.8975 20.7806 19.368 21.0007 18.75 21H5.25Z" fill="#F5F5F5"/>
</svg>
