<svg width="24" height="24" viewBox="0 0 24 24" fill="none" xmlns="http://www.w3.org/2000/svg">
<path d="M19.0642 8.91748C18.6753 9.30638 18.0454 9.30824 17.6542 8.92166L15.0715 6.36938C14.677 5.97955 14.6752 5.34316 15.0673 4.951L16.3112 3.70711C16.7017 3.31658 17.3349 3.31658 17.7254 3.70711L20.2929 6.27457C20.6834 6.66509 20.6834 7.29826 20.2929 7.68878L19.0642 8.91748ZM4 21C3.44772 21 3 20.5523 3 20V17.409C3 17.1438 3.10536 16.8894 3.29289 16.7019L12.2824 7.71234C12.6729 7.32182 13.3061 7.32182 13.6966 7.71234L16.2877 10.3034C16.6782 10.6939 16.6782 11.3271 16.2877 11.7176L7.29813 20.7071C7.11059 20.8946 6.85624 21 6.59102 21H4Z" fill="#F5F5F5"/>
</svg>
