<svg width="24" height="24" viewBox="0 0 24 24" fill="none" xmlns="http://www.w3.org/2000/svg">
<path fill-rule="evenodd" clip-rule="evenodd" d="M12 21C16.9706 21 21 16.9706 21 12C21 7.02944 16.9706 3 12 3C7.02944 3 3 7.02944 3 12C3 16.9706 7.02944 21 12 21ZM10.7286 12.6057C10.6103 13.004 10.5512 13.5262 10.5512 14.1723V14.358H12.7814V14.1723C12.7814 13.8008 12.8321 13.4859 12.9335 13.2275C13.0348 12.9637 13.1813 12.7375 13.3728 12.5491C13.5699 12.3553 13.8317 12.1642 14.1584 11.9758C14.7554 11.6366 15.2115 11.2436 15.5269 10.7968C15.8423 10.3445 16 9.79812 16 9.15747C16 8.50606 15.8282 7.94347 15.4847 7.46972C15.1468 6.99058 14.6737 6.62719 14.0655 6.37954C13.4572 6.12651 12.7561 6 11.962 6C11.2242 6 10.5597 6.12651 9.96832 6.37954C9.37698 6.62719 8.90391 7.00404 8.5491 7.51009C8.1943 8.01615 8.01126 8.63526 8 9.36743H10.3992C10.4104 9.06056 10.4893 8.79677 10.6357 8.57604C10.7821 8.35532 10.9708 8.18843 11.2017 8.07537C11.4382 7.96232 11.6888 7.90848 11.9535 7.91386C12.2295 7.90848 12.4801 7.96232 12.7054 8.07537C12.9363 8.18304 13.1137 8.33917 13.2376 8.54374C13.3671 8.74832 13.4319 8.97981 13.4319 9.23822C13.4319 9.48048 13.3784 9.70121 13.2714 9.9004C13.17 10.0942 13.0264 10.2746 12.8405 10.4415C12.6547 10.603 12.421 10.7672 12.1394 10.9341C11.7621 11.1602 11.4636 11.3943 11.2439 11.6366C11.0243 11.8789 10.8525 12.2019 10.7286 12.6057ZM11.0074 17.8223C11.227 17.9408 11.4636 18 11.717 18C11.9648 18 12.1957 17.9408 12.4097 17.8223C12.6294 17.6985 12.8039 17.5316 12.9335 17.3217C13.063 17.1117 13.1306 16.8829 13.1362 16.6353C13.1306 16.3984 13.063 16.1777 12.9335 15.9731C12.8039 15.7631 12.6294 15.5989 12.4097 15.4805C12.1957 15.362 11.9648 15.3028 11.717 15.3028C11.4636 15.3028 11.227 15.362 11.0074 15.4805C10.7878 15.5989 10.6132 15.7604 10.4836 15.965C10.3597 16.1696 10.3006 16.393 10.3062 16.6353C10.3006 16.8829 10.3597 17.1117 10.4836 17.3217C10.6132 17.5316 10.7878 17.6985 11.0074 17.8223Z" fill="#585B5F"/>
</svg>
