<svg width="24" height="24" viewBox="0 0 24 24" fill="none" xmlns="http://www.w3.org/2000/svg">
<g id="ic-other">
<path id="Subtract" fill-rule="evenodd" clip-rule="evenodd" d="M3 5C3 3.89543 3.89543 3 5 3H19C20.1046 3 21 3.89543 21 5V19C21 20.1046 20.1046 21 19 21H5C3.89543 21 3 20.1046 3 19V5ZM19 15.7243C19 15.528 18.9176 15.3408 18.773 15.2082L15.922 12.5949C15.5509 12.2547 14.9847 12.2434 14.6003 12.5686L11.1421 15.4948C10.7915 15.7914 10.284 15.8112 9.91142 15.5426L7.89775 14.0912C7.5294 13.8257 7.02839 13.8417 6.67772 14.1302L5.25529 15.3003C5.09366 15.4333 5 15.6316 5 15.8409V18.2996C5 18.6862 5.3134 18.9996 5.7 18.9996H18.3C18.6866 18.9996 19 18.6862 19 18.2996V15.7243ZM9 11C10.1046 11 11 10.1046 11 9C11 7.89543 10.1046 7 9 7C7.89543 7 7 7.89543 7 9C7 10.1046 7.89543 11 9 11Z" fill="#F5F5F5"/>
</g>
</svg>
