<svg width="24" height="24" viewBox="0 0 24 24" fill="none" xmlns="http://www.w3.org/2000/svg">
<path fill-rule="evenodd" clip-rule="evenodd" d="M3.02564 6C3.59209 6 4.05128 5.55228 4.05128 5C4.05128 4.44772 3.59209 4 3.02564 4C2.4592 4 2 4.44772 2 5C2 5.55228 2.4592 6 3.02564 6ZM6.61539 4C6.04894 4 5.58974 4.44772 5.58974 5C5.58974 5.55228 6.04894 6 6.61539 6H20.9744C21.5408 6 22 5.55228 22 5C22 4.44772 21.5408 4 20.9744 4H6.61539ZM6.61539 11C6.04894 11 5.58974 11.4477 5.58974 12C5.58974 12.5523 6.04894 13 6.61539 13H20.9744C21.5408 13 22 12.5523 22 12C22 11.4477 21.5408 11 20.9744 11H6.61539ZM5.58974 19C5.58974 18.4477 6.04894 18 6.61539 18H20.9744C21.5408 18 22 18.4477 22 19C22 19.5523 21.5408 20 20.9744 20H6.61539C6.04894 20 5.58974 19.5523 5.58974 19ZM4.05128 12C4.05128 12.5523 3.59209 13 3.02564 13C2.4592 13 2 12.5523 2 12C2 11.4477 2.4592 11 3.02564 11C3.59209 11 4.05128 11.4477 4.05128 12ZM3.02564 20C3.59209 20 4.05128 19.5523 4.05128 19C4.05128 18.4477 3.59209 18 3.02564 18C2.4592 18 2 18.4477 2 19C2 19.5523 2.4592 20 3.02564 20Z" fill="#F5F5F5"/>
</svg>
