<svg width="24" height="24" viewBox="0 0 24 24" fill="none" xmlns="http://www.w3.org/2000/svg">
<path fill-rule="evenodd" clip-rule="evenodd" d="M16.8979 3.96607C15.5837 2.70489 13.8276 1.99997 12.0001 2C10.1307 2 8.33796 2.7375 7.01613 4.05025C5.69431 5.36301 4.95172 7.14348 4.95172 9V11.8197C4.95172 12.4407 4.80614 13.0532 4.52651 13.6086L3.11713 16.408L3.07081 16.513C3.00781 16.6795 2.98639 16.8586 3.00839 17.0351C3.03038 17.2116 3.09513 17.3802 3.19709 17.5264C3.29906 17.6725 3.43519 17.792 3.59382 17.8745C3.75245 17.957 3.92886 18.0001 4.10793 18H19.8922L20.008 17.994C20.186 17.9754 20.3569 17.9143 20.5059 17.8158C20.655 17.7174 20.7777 17.5845 20.8637 17.4286C20.9498 17.2727 20.9964 17.0984 20.9998 16.9206C21.0032 16.7429 20.9631 16.567 20.883 16.408L19.4736 13.6086C19.194 13.0532 19.0484 12.4407 19.0484 11.8197V9L19.0444 8.76C18.9818 6.94609 18.2121 5.22726 16.8979 3.96607ZM11.8283 22C10.5131 22 9.39419 21.1652 8.9795 20H14.6772C14.2625 21.1652 13.1436 22 11.8283 22Z" fill="#F5F5F5"/>
</svg>
