<svg width="24" height="24" viewBox="0 0 24 24" fill="none" xmlns="http://www.w3.org/2000/svg">
<path fill-rule="evenodd" clip-rule="evenodd" d="M5.78117 8.00027C7.07754 5.97491 9.32906 4.63636 11.888 4.63636C15.3477 4.63636 18.2448 7.08374 18.9796 10.3629C19.0783 10.8035 19.5112 11.0797 19.9463 10.9797C20.3815 10.8797 20.6542 10.4414 20.5555 10.0008C19.6573 5.99266 16.1187 3 11.888 3C8.8809 3 6.22385 4.51211 4.61596 6.82464V5.18208C4.61596 4.73022 4.25421 4.3639 3.80798 4.3639C3.36174 4.3639 3 4.73022 3 5.18208V8.81845C3 9.27032 3.36174 9.63663 3.80798 9.63663H7.39899C7.84522 9.63663 8.20697 9.27032 8.20697 8.81845C8.20697 8.36658 7.84522 8.00027 7.39899 8.00027H5.78117ZM4.79634 13.6371C4.6976 13.1965 4.26477 12.9203 3.8296 13.0203C3.39443 13.1203 3.1217 13.5586 3.22045 13.9992C4.11859 18.0073 7.65718 21 11.888 21C15.0392 21 17.8061 19.3395 19.384 16.8371V18.3633C19.384 18.8152 19.7458 19.1815 20.192 19.1815C20.6383 19.1815 21 18.8152 21 18.3633V14.7269C21 14.2751 20.6383 13.9087 20.192 13.9087H16.601C16.1548 13.9087 15.793 14.275 15.793 14.7269C15.793 15.1788 16.1548 15.5451 16.601 15.5451H18.2633C17.0259 17.8221 14.6339 19.3636 11.888 19.3636C8.42827 19.3636 5.53114 16.9163 4.79634 13.6371Z" fill="#F5F5F5"/>
</svg>
