<svg width="24" height="24" viewBox="0 0 24 24" fill="none" xmlns="http://www.w3.org/2000/svg">
<path fill-rule="evenodd" clip-rule="evenodd" d="M22 12.8357C22 13.4506 21.6065 13.9965 21.0232 14.191L19.7265 14.6232C19.527 14.6879 19.3661 14.8369 19.2863 15.0309C19.2065 15.2248 19.216 15.444 19.3122 15.6303L19.3206 15.6468L19.9313 16.8683C20.2063 17.4183 20.0985 18.0825 19.6637 18.5173L18.4852 19.6959C18.0385 20.1426 17.3514 20.2428 16.7957 19.9424L15.633 19.3139C15.4512 19.2289 15.2417 19.2241 15.0559 19.3013C14.8648 19.3808 14.7175 19.5393 14.6522 19.7358L14.6517 19.7375L14.2231 21.0232C14.0287 21.6065 13.4828 22 12.8679 22H11.1643C10.5494 22 10.0035 21.6065 9.80902 21.0232L9.3768 19.7265C9.3121 19.527 9.16306 19.3661 8.96914 19.2863C8.77521 19.2065 8.55602 19.216 8.3697 19.3122L8.35316 19.3206L7.13173 19.9313C6.58175 20.2063 5.9175 20.0985 5.4827 19.6637L4.30413 18.4852C3.85744 18.0385 3.75717 17.3514 4.05756 16.7957L4.69227 15.6215C4.78427 15.4371 4.79222 15.2217 4.7137 15.0309C4.63393 14.8369 4.47297 14.6879 4.27351 14.6232L4.26252 14.6196L2.97682 14.191C2.39347 13.9965 2 13.4506 2 12.8357V11.1643C2 10.5494 2.39347 10.0035 2.97682 9.80902L4.27349 9.3768C4.47296 9.3121 4.63393 9.16306 4.7137 8.96914C4.79347 8.77521 4.784 8.55602 4.68779 8.3697L4.68633 8.36687L4.07562 7.17758C3.79214 6.62555 3.89748 5.95365 4.33628 5.51485L5.51485 4.33628C5.95365 3.89747 6.62555 3.79214 7.17758 4.07562L8.3697 4.68779C8.55602 4.784 8.77521 4.79347 8.96914 4.7137C9.16306 4.63393 9.31214 4.47297 9.37684 4.27351L9.38041 4.26252L9.80902 2.97682C10.0035 2.39347 10.5494 2 11.1643 2H12.8357C13.4506 2 13.9965 2.39347 14.191 2.97682L14.6232 4.27349C14.6879 4.47296 14.8369 4.63393 15.0309 4.7137C15.2248 4.79347 15.444 4.784 15.6303 4.68779L15.6468 4.67939L16.8683 4.06868C17.4183 3.79368 18.0825 3.90148 18.5173 4.33628L19.6959 5.51485C20.1426 5.96154 20.2428 6.64858 19.9424 7.20431L19.3139 8.36702C19.2289 8.54877 19.2241 8.75827 19.3013 8.94407C19.3808 9.13525 19.5393 9.28253 19.7358 9.34776L19.7375 9.34831L21.0232 9.77688C21.6065 9.97133 22 10.5172 22 11.1321V12.8357ZM16 12C16 14.2091 14.2091 16 12 16C9.79086 16 8 14.2091 8 12C8 9.79086 9.79086 8 12 8C14.2091 8 16 9.79086 16 12Z" fill="#F5F5F5"/>
</svg>
