<svg width="24" height="24" viewBox="0 0 24 24" fill="none" xmlns="http://www.w3.org/2000/svg">
<path fill-rule="evenodd" clip-rule="evenodd" d="M8.32927 2C7.55138 2 6.74734 2.58169 6.71385 3.51785C6.68258 4.36332 6.56758 5.20336 6.37063 6.02511L6.04567 7.38098C5.94082 7.81843 5.81769 8.23918 5.68747 8.68415C5.62891 8.88425 5.56891 9.08927 5.50851 9.30289C5.32043 9.96799 5.13964 10.6816 5.05409 11.4303C5.01813 11.745 5 12.0618 5 12.3794C5 14.6353 6.22575 16.5867 8.02821 17.7486L7.10779 19.722L7.08864 19.7855C6.71436 21.0269 7.75761 22 8.80377 22H15.1962C16.2439 22 17.2837 21.026 16.9117 19.7866L16.8925 19.7225L15.9718 17.7486C17.7743 16.5867 19 14.6353 19 12.3794C19 12.0637 18.9821 11.7488 18.9465 11.436C18.8612 10.6851 18.6799 9.96951 18.4912 9.30265C18.4306 9.08829 18.3704 8.88261 18.3116 8.68186C18.181 8.2359 18.0575 7.81423 17.9524 7.37579L17.6287 6.02511C17.4317 5.20316 17.3167 4.3627 17.2854 3.51702C17.2507 2.5827 16.4486 2 15.67 2H8.32927ZM15.5193 3.81818H8.47995C8.43293 4.7082 8.30485 5.59196 8.09729 6.45797L7.77233 7.81384C7.65638 8.2976 7.51245 8.78967 7.37641 9.25472C7.32091 9.44445 7.26673 9.62968 7.2163 9.80802C7.03559 10.447 6.88799 11.045 6.81985 11.6414C6.80622 11.7606 6.79589 12.8802 6.78888 13H17.2111C17.2042 12.8817 17.194 11.7636 17.1807 11.6459C17.1127 11.0481 16.9648 10.4487 16.7835 9.80804C16.7329 9.62917 16.6785 9.44336 16.6228 9.25302C16.4864 8.78687 16.3419 8.29356 16.2257 7.80865L15.902 6.45797C15.6944 5.59196 15.5664 4.7082 15.5193 3.81818Z" fill="#F5F5F5"/>
</svg>
