<svg width="24" height="25" viewBox="0 0 24 25" fill="none" xmlns="http://www.w3.org/2000/svg">
<g id="ic-other">
<path id="Vector" d="M19.0642 9.41748C18.6753 9.80638 18.0454 9.80824 17.6542 9.42166L15.0715 6.86938C14.677 6.47955 14.6752 5.84316 15.0673 5.451L16.3112 4.20711C16.7017 3.81658 17.3349 3.81658 17.7254 4.20711L20.2929 6.77457C20.6834 7.16509 20.6834 7.79826 20.2929 8.18878L19.0642 9.41748ZM4 21.5C3.44772 21.5 3 21.0523 3 20.5V17.909C3 17.6438 3.10536 17.3894 3.29289 17.2019L12.2824 8.21234C12.6729 7.82182 13.3061 7.82182 13.6966 8.21234L16.2877 10.8034C16.6782 11.1939 16.6782 11.8271 16.2877 12.2176L7.29813 21.2071C7.11059 21.3946 6.85624 21.5 6.59102 21.5H4Z" fill="#F5F5F5"/>
</g>
</svg>
