<svg width="24" height="25" viewBox="0 0 24 25" fill="none" xmlns="http://www.w3.org/2000/svg">
<g id="ic-other">
<path id="Vector" d="M11.293 2.79303C11.4805 2.60556 11.7348 2.50024 12 2.50024C12.2652 2.50024 12.5195 2.60556 12.707 2.79303L15.707 5.79303C15.8892 5.98163 15.99 6.23424 15.9877 6.49643C15.9854 6.75863 15.8802 7.00944 15.6948 7.19485C15.5094 7.38026 15.2586 7.48543 14.9964 7.4877C14.7342 7.48998 14.4816 7.38919 14.293 7.20703L13 5.91403V15.5C13 15.7652 12.8946 16.0196 12.7071 16.2071C12.5196 16.3947 12.2652 16.5 12 16.5C11.7348 16.5 11.4804 16.3947 11.2929 16.2071C11.1054 16.0196 11 15.7652 11 15.5V5.91403L9.707 7.20703C9.5184 7.38919 9.2658 7.48998 9.0036 7.4877C8.7414 7.48543 8.49059 7.38026 8.30518 7.19485C8.11977 7.00944 8.0146 6.75863 8.01233 6.49643C8.01005 6.23424 8.11084 5.98163 8.293 5.79303L11.293 2.79303ZM4 10.5C4 9.9696 4.21071 9.46089 4.58579 9.08582C4.96086 8.71074 5.46957 8.50003 6 8.50003H8C8.26522 8.50003 8.51957 8.60539 8.70711 8.79292C8.89464 8.98046 9 9.23481 9 9.50003C9 9.76525 8.89464 10.0196 8.70711 10.2071C8.51957 10.3947 8.26522 10.5 8 10.5H6V20.5H18V10.5H16C15.7348 10.5 15.4804 10.3947 15.2929 10.2071C15.1054 10.0196 15 9.76525 15 9.50003C15 9.23481 15.1054 8.98046 15.2929 8.79292C15.4804 8.60539 15.7348 8.50003 16 8.50003H18C18.5304 8.50003 19.0391 8.71074 19.4142 9.08582C19.7893 9.46089 20 9.9696 20 10.5V20.5C20 21.0305 19.7893 21.5392 19.4142 21.9142C19.0391 22.2893 18.5304 22.5 18 22.5H6C5.46957 22.5 4.96086 22.2893 4.58579 21.9142C4.21071 21.5392 4 21.0305 4 20.5V10.5Z" fill="#F5F5F5"/>
</g>
</svg>
